<svg id="LineForLineFilled" xmlns="http://www.w3.org/2000/svg" viewBox="0 0 512 512" height="225" width="400"><defs><style>.cls-1{fill:#9eb7e0;}.cls-2{fill:#474747;}.cls-3{fill:none;stroke:#4e5b5c;stroke-linecap:round;stroke-miterlimit:10;stroke-width:22.677px;}</style></defs><path class="cls-1" d="M255.999,228.183l106.632-41.725v139.085l-106.632,41.725v-139.085Z" /><path class="cls-1" d="M255.999,228.183l-106.632-41.725v139.085l106.632,41.725v-139.085Z" /><path class="cls-1" d="M362.631,186.458l-106.632-41.725-106.632,41.725,106.632,41.725,106.632-41.725Z" /><path class="cls-2" d="M367.267,320.049v-133.591c0-1.91-1.168-3.621-2.949-4.316l-106.632-41.725c-1.085-.427-2.29-.427-3.38,0l-106.632,41.725c-1.776.695-2.944,2.406-2.944,4.316v139.085c0,1.91,1.168,3.621,2.949,4.316h0l106.632,41.725c.542.213,1.113.32,1.688.32s1.145-.107,1.688-.32l12.295-4.812,93.101-39.349s3.315-1.431,3.764-2.505c.469-1.122.42-3.375.42-3.375v-1.495ZM154.004,193.25l97.359,38.095v129.131l-97.359-38.1v-129.126ZM280.279,352.789l-19.643,7.687v-129.131l97.359-38.095-.157,127.453M255.999,149.711l93.91,36.746-93.91,36.746-93.91-36.746,93.91-36.746Z" /><path class="cls-3" d="M61.755,192.231v-112.197c0-2.788,2.26-5.048,5.048-5.048h112.197" /><path class="cls-3" d="M450.245,192.231v-112.197c0-2.788-2.26-5.048-5.048-5.048h-112.197" /><path class="cls-3" d="M61.755,312.071v112.197c0,2.788,2.26,5.048,5.048,5.048h112.197" /><path class="cls-3" d="M450.245,312.071v112.197c0,2.788-2.26,5.048-5.048,5.048h-112.197" /></svg>